<?xml version="1.0" encoding="utf-8"?>
<!-- Uploaded to: SVG Repo, www.svgrepo.com, Generator: SVG Repo Mixer Tools -->
<svg width="800px" height="800px" viewBox="0 -11.82 98.184 98.184" xmlns="http://www.w3.org/2000/svg" xmlns:xlink="http://www.w3.org/1999/xlink">
  <defs>
    <linearGradient id="linear-gradient" x1="0.5" y1="1" x2="0.5" y2="0.037" gradientUnits="objectBoundingBox">
      <stop offset="0" stop-color="#f9f6fc"/>
      <stop offset="1" stop-color="#ffffff"/>
    </linearGradient>
    <linearGradient id="linear-gradient-2" x1="0.5" y1="1" x2="0.5" y2="0.185" xlink:href="#linear-gradient"/>
    <linearGradient id="linear-gradient-3" x1="0.5" y1="0.815" x2="0.5" y2="0.037" xlink:href="#linear-gradient"/>
    <linearGradient id="linear-gradient-4" x1="0.5" y1="1" x2="0.5" y2="0.037" xlink:href="#linear-gradient"/>
    <linearGradient id="linear-gradient-5" x1="0.5" y1="1" x2="0.5" y2="0.185" xlink:href="#linear-gradient"/>
    <linearGradient id="linear-gradient-6" x1="0.5" y1="0.815" x2="0.5" y2="0.037" xlink:href="#linear-gradient"/>
    <linearGradient id="linear-gradient-7" x1="32.75" y1="1" x2="32.75" y2="0.037" xlink:href="#linear-gradient"/>
    <linearGradient id="linear-gradient-8" x1="32.683" y1="1" x2="32.683" y2="0.185" xlink:href="#linear-gradient"/>
    <linearGradient id="linear-gradient-9" x1="32.331" y1="0.815" x2="32.331" y2="0.037" xlink:href="#linear-gradient"/>
  </defs>
  <g id="books" transform="translate(-655.42 -629.989)">
    <g id="Group_25" data-name="Group 25">
      <path id="Path_64" data-name="Path 64" d="M684.308,691.366v1.464a8.783,8.783,0,0,0,8.773,8.775h60.178a4.679,4.679,0,0,0,.345-1.755v-15.5a4.675,4.675,0,0,0-.345-1.755H693.081A8.782,8.782,0,0,0,684.308,691.366Z" fill="#f9f6fc"/>
      <path id="Path_65" data-name="Path 65" d="M748.926,679.665H663.61a8.213,8.213,0,0,0-8.19,8.191v8.483a8.212,8.212,0,0,0,8.19,8.189h85.316a4.692,4.692,0,0,0,4.678-4.678v-15.5A4.693,4.693,0,0,0,748.926,679.665Z" fill="#3477cf"/>
      <path id="Path_66" data-name="Path 66" d="M662.49,696.339v-8.483a8.214,8.214,0,0,1,8.19-8.191H667.7a8.215,8.215,0,0,0-8.191,8.191v8.483a8.214,8.214,0,0,0,8.191,8.189h2.976A8.213,8.213,0,0,1,662.49,696.339Z" fill="#499be6"/>
      <path id="Path_67" data-name="Path 67" d="M678.333,696.339v-8.483a8.213,8.213,0,0,1,8.188-8.191h-2.973a8.216,8.216,0,0,0-8.192,8.191v8.483a8.215,8.215,0,0,0,8.192,8.189h2.973A8.212,8.212,0,0,1,678.333,696.339Z" fill="#499be6"/>
      <path id="Path_68" data-name="Path 68" d="M753.6,699.85v-15.5a4.693,4.693,0,0,0-4.678-4.682H691.91a11.735,11.735,0,0,0-11.7,11.7v1.464a11.733,11.733,0,0,0,11.7,11.7h57.016A4.692,4.692,0,0,0,753.6,699.85Z" fill="#499be6"/>
      <path id="Path_69" data-name="Path 69" d="M684.308,691.366v1.464a8.783,8.783,0,0,0,8.773,8.775h60.178a4.679,4.679,0,0,0,.345-1.755v-15.5a4.675,4.675,0,0,0-.345-1.755H693.081A8.782,8.782,0,0,0,684.308,691.366Z" fill="#f2f3f7"/>
      <path id="Path_70" data-name="Path 70" d="M753.541,683.614H688.979a8.815,8.815,0,0,0-3.8,3.951H753.6v-3.218A4.451,4.451,0,0,0,753.541,683.614Z" fill="url(#linear-gradient)"/>
      <path id="Path_71" data-name="Path 71" d="M688.482,700.288h65.1a3.729,3.729,0,0,0,.023-.438v-3.511H685.043A8.814,8.814,0,0,0,688.482,700.288Z" fill="url(#linear-gradient-2)"/>
      <path id="Path_72" data-name="Path 72" d="M684.308,691.366v1.464a9,9,0,0,0,.072,1.095H753.6v-3.949H684.428A8.431,8.431,0,0,0,684.308,691.366Z" fill="url(#linear-gradient-3)"/>
    </g>
    <g id="Group_26" data-name="Group 26">
      <path id="Path_73" data-name="Path 73" d="M684.308,641.69v1.462a8.786,8.786,0,0,0,8.773,8.777h60.178a4.685,4.685,0,0,0,.345-1.756v-15.5a4.665,4.665,0,0,0-.345-1.753H693.081A8.783,8.783,0,0,0,684.308,641.69Z" fill="#f9f6fc"/>
      <path id="Path_74" data-name="Path 74" d="M748.926,629.989H663.61a8.213,8.213,0,0,0-8.19,8.191v8.483a8.213,8.213,0,0,0,8.19,8.19h85.316a4.693,4.693,0,0,0,4.678-4.68v-15.5A4.693,4.693,0,0,0,748.926,629.989Z" fill="#f55162"/>
      <path id="Path_75" data-name="Path 75" d="M662.49,646.663V638.18a8.214,8.214,0,0,1,8.19-8.191H667.7a8.215,8.215,0,0,0-8.191,8.191v8.483a8.215,8.215,0,0,0,8.191,8.19h2.976A8.213,8.213,0,0,1,662.49,646.663Z" fill="#f27a74"/>
      <path id="Path_76" data-name="Path 76" d="M678.333,646.663V638.18a8.213,8.213,0,0,1,8.188-8.191h-2.973a8.216,8.216,0,0,0-8.192,8.191v8.483a8.216,8.216,0,0,0,8.192,8.19h2.973A8.213,8.213,0,0,1,678.333,646.663Z" fill="#f27a74"/>
      <path id="Path_77" data-name="Path 77" d="M753.6,650.173v-15.5a4.693,4.693,0,0,0-4.678-4.68H691.91a11.735,11.735,0,0,0-11.7,11.7v1.462a11.735,11.735,0,0,0,11.7,11.7h57.016A4.693,4.693,0,0,0,753.6,650.173Z" fill="#f27a74"/>
      <path id="Path_78" data-name="Path 78" d="M684.308,641.69v1.462a8.786,8.786,0,0,0,8.773,8.777h60.178a4.685,4.685,0,0,0,.345-1.756v-15.5a4.665,4.665,0,0,0-.345-1.753H693.081A8.783,8.783,0,0,0,684.308,641.69Z" fill="#f2f3f7"/>
      <path id="Path_79" data-name="Path 79" d="M753.541,633.937H688.979a8.82,8.82,0,0,0-3.8,3.949H753.6v-3.217A4.42,4.42,0,0,0,753.541,633.937Z" fill="url(#linear-gradient-4)"/>
      <path id="Path_80" data-name="Path 80" d="M688.482,650.612h65.1a3.734,3.734,0,0,0,.023-.439v-3.51H685.043A8.813,8.813,0,0,0,688.482,650.612Z" fill="url(#linear-gradient-5)"/>
      <path id="Path_81" data-name="Path 81" d="M684.308,641.69v1.462a9.035,9.035,0,0,0,.072,1.1H753.6V640.3H684.428A8.376,8.376,0,0,0,684.308,641.69Z" fill="url(#linear-gradient-6)"/>
    </g>
    <g id="Group_27" data-name="Group 27">
      <path id="Path_82" data-name="Path 82" d="M724.715,666.6v1.462a8.784,8.784,0,0,1-8.774,8.772H655.766a4.651,4.651,0,0,1-.346-1.753V659.578a4.659,4.659,0,0,1,.346-1.753h60.175A8.785,8.785,0,0,1,724.715,666.6Z" fill="#f9f6fc"/>
      <path id="Path_83" data-name="Path 83" d="M660.1,654.9h85.315a8.213,8.213,0,0,1,8.189,8.19v8.485a8.211,8.211,0,0,1-8.189,8.189H660.1a4.693,4.693,0,0,1-4.68-4.68V659.578A4.693,4.693,0,0,1,660.1,654.9Z" fill="#87e747"/>
      <path id="Path_84" data-name="Path 84" d="M746.534,671.574v-8.485a8.214,8.214,0,0,0-8.19-8.19h2.974a8.217,8.217,0,0,1,8.194,8.19v8.485a8.215,8.215,0,0,1-8.194,8.189h-2.974A8.213,8.213,0,0,0,746.534,671.574Z" fill="#acf970"/>
      <path id="Path_85" data-name="Path 85" d="M730.691,671.574v-8.485a8.214,8.214,0,0,0-8.189-8.19h2.973a8.215,8.215,0,0,1,8.191,8.19v8.485a8.213,8.213,0,0,1-8.191,8.189H722.5A8.212,8.212,0,0,0,730.691,671.574Z" fill="#acf970"/>
      <path id="Path_86" data-name="Path 86" d="M655.42,675.083V659.578a4.693,4.693,0,0,1,4.68-4.679h57.012a11.735,11.735,0,0,1,11.7,11.7v1.462a11.734,11.734,0,0,1-11.7,11.7H660.1A4.693,4.693,0,0,1,655.42,675.083Z" fill="#acf970"/>
      <path id="Path_87" data-name="Path 87" d="M724.715,666.6v1.462a8.784,8.784,0,0,1-8.774,8.772H655.766a4.651,4.651,0,0,1-.346-1.753V659.578a4.659,4.659,0,0,1,.346-1.753h60.175A8.785,8.785,0,0,1,724.715,666.6Z" fill="#f2f3f7"/>
      <path id="Path_88" data-name="Path 88" d="M655.42,659.578V662.8h68.42a8.821,8.821,0,0,0-3.8-3.947H655.485A4.3,4.3,0,0,0,655.42,659.578Z" fill="url(#linear-gradient-7)"/>
      <path id="Path_89" data-name="Path 89" d="M723.979,671.574H655.42v3.509a3.983,3.983,0,0,0,.024.439h65.1A8.8,8.8,0,0,0,723.979,671.574Z" fill="url(#linear-gradient-8)"/>
      <path id="Path_90" data-name="Path 90" d="M724.595,665.209H655.42v3.95h69.223a9.229,9.229,0,0,0,.072-1.095V666.6A8.433,8.433,0,0,0,724.595,665.209Z" fill="url(#linear-gradient-9)"/>
    </g>
  </g>
</svg>