<?xml version="1.0" encoding="iso-8859-1"?>
<!-- Uploaded to: SVG Repo, www.svgrepo.com, Generator: SVG Repo Mixer Tools -->
<!DOCTYPE svg PUBLIC "-//W3C//DTD SVG 1.1//EN" "http://www.w3.org/Graphics/SVG/1.1/DTD/svg11.dtd">
<svg fill="#000000" height="800px" width="800px" version="1.1" id="Capa_1" xmlns="http://www.w3.org/2000/svg" xmlns:xlink="http://www.w3.org/1999/xlink" 
	 viewBox="0 0 477.13 477.13" xml:space="preserve">
<g>
	<path d="M254.604,108.371c25.443,0,46.143-20.699,46.143-46.142c0-25.443-20.7-46.144-46.143-46.144
		c-25.437,0-46.131,20.7-46.131,46.144C208.473,87.672,229.167,108.371,254.604,108.371z"/>
	<path d="M368.937,6.477C365.252,2.421,359.736,0,354.178,0c-9.97,0-17.132,7.021-19.164,18.799L325,79.645
		c-0.059,0.411-0.478,1.479-0.755,1.947l-36.277,37.99h-66.716L184.973,81.59c-0.276-0.467-0.697-1.538-0.763-1.996L174.201,18.78
		C172.204,7.196,164.863,0,155.04,0c-5.849,0-11.774,2.686-15.467,7.01c-3.095,3.625-4.408,8.089-3.695,12.583l9.975,60.788
		c0.064,9.399,4.6,20.647,11.071,27.426l41.867,43.844v55.683h-72.559l7.303-30.201c0.982-4.056,4.709-10.28,7.822-13.059
		l6.605-5.896c3.241,2.591,7.342,4.151,11.805,4.151c10.449,0,18.95-8.501,18.95-18.95c0-10.449-8.501-18.95-18.95-18.95
		s-18.95,8.501-18.95,18.95c0,1.182,0.123,2.334,0.331,3.456l-8.447,7.542c-5.115,4.565-10.188,13.034-11.801,19.7l-8.042,33.257
		h-2.85c-1.979,0-3.786,0.827-4.96,2.271c-1.174,1.443-1.615,3.382-1.212,5.319l9.33,44.754c0.76,3.643,4.27,6.496,7.99,6.496
		h12.123l15.468,162.145h-8.036c-7.622,0-13.822,6.2-13.822,13.821v21.17c0,7.621,6.2,13.821,13.822,13.821h182.977
		c7.622,0,13.822-6.2,13.822-13.821v-21.17c0-7.621-6.2-13.821-13.822-13.821h-8.036l15.469-162.145h12.122
		c3.721,0,7.23-2.854,7.99-6.496l9.33-44.754c0.403-1.938-0.038-3.876-1.212-5.319c-1.174-1.443-2.982-2.271-4.96-2.271h-43.962
		v-55.682l41.869-43.846c6.472-6.78,11.005-18.028,11.069-27.425l9.975-60.788l0.022-0.162
		C373.816,14.718,372.244,10.117,368.937,6.477z"/>
</g>
</svg>